<svg width="80" height="401" viewBox="0 0 80 401" fill="none" xmlns="http://www.w3.org/2000/svg">
<path d="M80 0.0237732V9.05324L0.0733177 96.5839L0.0733178 87.5545L80 0.0237732Z" fill="white"/>
<path d="M79.9267 23.3653V32.3948L0 119.925L3.99329e-08 110.896L79.9267 23.3653Z" fill="white"/>
<path d="M80 46.7068V55.7363L0.0733177 143.267L0.0733178 134.238L80 46.7068Z" fill="white"/>
<path d="M80 70.0484V79.0778L0.0733177 166.608L0.0733178 157.579L80 70.0484Z" fill="white"/>
<path d="M80 93.3899V102.419L0.0733177 189.95L0.0733178 180.921L80 93.3899Z" fill="white"/>
<path d="M80 116.731V125.761L0.0733177 213.292L0.0733178 204.262L80 116.731Z" fill="white"/>
<path d="M80 140.073V149.102L0.0733177 236.633L0.0733178 227.604L80 140.073Z" fill="white"/>
<path d="M80 163.414V172.444L0.0733177 259.975L0.0733178 250.945L80 163.414Z" fill="white"/>
<path d="M80 186.756V195.785L0.0733177 283.316L0.0733178 274.287L80 186.756Z" fill="white"/>
<path d="M80 210.097V219.127L0.0733177 306.658L0.0733178 297.628L80 210.097Z" fill="white"/>
<path d="M80 233.439V242.468L0.0733177 329.999L0.0733178 320.97L80 233.439Z" fill="white"/>
<path d="M80 256.781V265.81L0.0733177 353.341L0.0733178 344.311L80 256.781Z" fill="white"/>
<path d="M80 280.122V289.152L0.0733177 376.682L0.0733178 367.653L80 280.122Z" fill="white"/>
<path d="M80 303.464V312.493L0.0733177 400.024L0.0733178 390.994L80 303.464Z" fill="white"/>
</svg>
